<?xml version="1.0" standalone="no"?>
<!DOCTYPE svg PUBLIC "-//W3C//DTD SVG 20010904//EN"
 "http://www.w3.org/TR/2001/REC-SVG-20010904/DTD/svg10.dtd">
<svg version="1.0" xmlns="http://www.w3.org/2000/svg"
 width="1024.000000pt" height="1024.000000pt" viewBox="0 0 1024.000000 1024.000000"
 preserveAspectRatio="xMidYMid meet">

<g transform="translate(0.000000,1024.000000) scale(0.100000,-0.100000)"
fill="#000000" stroke="none">
<path d="M0 5120 l0 -5120 5120 0 5120 0 0 5120 0 5120 -5120 0 -5120 0 0
-5120z m2727 1670 c23 -10 131 -71 240 -136 109 -64 348 -205 532 -313 183
-108 355 -215 381 -238 25 -23 62 -70 81 -105 l34 -63 0 -660 0 -660 -34 -69
c-53 -107 -127 -174 -331 -295 -96 -58 -185 -111 -197 -119 -13 -8 -23 -12
-23 -9 0 3 74 51 165 107 90 57 162 107 159 111 -2 4 -12 6 -22 3 -13 -4 -12
-3 2 7 15 9 21 9 24 1 2 -7 8 -12 13 -12 6 0 7 4 4 10 -3 5 0 8 7 5 7 -2 25 6
41 18 l27 23 -30 -1 c-17 0 -36 -9 -44 -20 -14 -19 -15 -19 -22 -2 -5 15 -9
16 -15 5 -7 -11 -9 -11 -9 1 0 7 -6 11 -14 8 -9 -4 -16 1 -18 14 -3 17 -22 8
-148 -67 -213 -126 -216 -128 -205 -117 6 6 93 62 195 123 227 138 247 152
289 206 67 88 66 74 66 739 l0 600 -24 48 c-28 58 -59 81 -256 196 -185 108
-648 379 -809 473 l-118 70 -72 -4 c-71 -4 -71 -4 -296 -140 -214 -129 -551
-328 -764 -452 -108 -64 -181 -132 -192 -180 -4 -17 -9 -26 -11 -20 -12 36 55
120 139 175 31 20 54 40 50 44 -4 5 -2 6 3 2 6 -3 33 7 60 23 28 17 44 30 37
30 -7 0 -25 -8 -39 -17 -15 -10 -24 -13 -20 -7 4 7 0 17 -8 24 -13 11 -14 10
-9 -4 3 -9 1 -16 -4 -16 -12 0 -27 38 -24 58 3 12 -21 1 -108 -51 -68 -40
-121 -90 -150 -140 -34 -59 -40 -57 -10 3 11 21 37 55 57 75 21 20 242 160
493 311 250 151 506 305 568 343 121 75 179 93 267 84 28 -3 69 -13 92 -23z
m2546 -558 c77 -38 138 -102 161 -169 9 -26 15 -48 13 -49 -2 -2 -34 -6 -73
-9 l-69 -6 -26 39 c-57 84 -200 110 -308 56 -160 -80 -197 -338 -68 -472 54
-57 102 -77 188 -77 67 0 81 3 124 30 28 17 55 44 64 63 17 35 21 36 139 15
38 -6 38 -10 11 -68 -64 -135 -235 -215 -400 -187 -287 49 -439 362 -310 637
32 69 94 143 147 176 74 46 133 60 240 57 90 -3 107 -7 167 -36z m489 -327
l-2 -355 187 0 188 0 0 -70 0 -70 -260 0 -260 0 3 425 2 425 73 0 72 0 -3
-355z m628 64 c0 -329 2 -340 73 -387 29 -19 55 -27 101 -30 83 -5 142 25 174
88 21 43 22 53 22 332 l0 288 76 0 75 0 -3 -312 c-3 -304 -4 -314 -27 -365
-51 -115 -167 -183 -309 -183 -135 1 -236 57 -294 165 l-33 60 -3 318 -3 317
75 0 76 0 0 -291z m1141 275 c133 -39 197 -196 127 -311 -17 -29 -87 -73 -116
-73 -26 0 -10 -18 22 -24 47 -9 109 -57 129 -99 10 -19 17 -59 17 -89 -1 -95
-49 -168 -140 -211 -41 -20 -65 -22 -262 -25 l-218 -4 0 426 0 426 193 0 c148
0 206 -4 248 -16z m859 -54 l0 -70 -190 0 -190 0 0 -110 0 -110 175 0 175 0 0
-65 0 -65 -175 0 -175 0 0 -110 0 -110 195 0 195 0 0 -70 0 -70 -270 0 -270 0
0 425 0 425 265 0 265 0 0 -70z m-5653 22 c88 -56 130 -142 120 -246 -3 -34
-9 -71 -13 -84 -5 -19 20 -49 181 -212 l187 -189 37 24 c133 88 319 32 399
-120 22 -42 27 -63 26 -125 0 -112 -47 -191 -142 -243 -94 -51 -193 -48 -287
8 -32 19 -59 35 -61 35 -9 0 -240 -224 -246 -238 -5 -14 -7 -14 -7 -2 -1 9 30
47 69 85 68 68 69 70 47 82 -12 7 -18 12 -14 13 5 0 17 -4 27 -10 13 -7 21 -5
31 8 11 14 11 15 0 5 -18 -15 -71 10 -71 33 0 8 5 12 10 9 6 -3 10 -2 10 4 0
27 -32 11 -99 -51 -41 -37 -78 -68 -83 -68 -4 0 52 55 125 122 l132 123 0 70
c1 38 4 86 8 105 7 35 5 37 -182 229 l-188 195 -51 -22 c-66 -28 -138 -28
-204 0 l-50 21 -130 -130 -131 -131 17 -41 c9 -23 15 -56 15 -74 -1 -30 -2
-30 -8 8 -4 22 -13 56 -21 76 l-13 36 79 83 c43 45 78 87 76 92 -1 5 1 7 6 4
5 -3 24 11 43 32 31 33 31 34 4 11 -36 -31 -60 -32 -59 -2 0 13 -4 19 -13 16
-7 -3 -10 -10 -6 -16 3 -6 1 -7 -5 -3 -7 4 -12 14 -12 22 0 8 -5 12 -10 9 -6
-4 -7 -12 -4 -18 4 -7 3 -9 -1 -4 -5 4 -46 -29 -91 -74 l-83 -80 -30 16 c-17
8 -47 19 -68 24 -28 7 -31 9 -13 10 14 0 44 -8 66 -18 l41 -19 136 137 136
136 -15 55 c-31 118 27 241 141 300 32 16 56 20 115 18 66 -3 82 -7 127 -36z
m-1510 -304 c-3 -7 -5 -2 -5 12 0 14 2 19 5 13 2 -7 2 -19 0 -25z m-10 -225
c-2 -38 -3 -7 -3 67 0 74 1 105 3 68 2 -38 2 -98 0 -135z m110 -200 c-1 -71
-3 -13 -3 127 0 140 2 198 3 128 2 -71 2 -185 0 -255z m626 160 c-7 -2 -19 -2
-25 0 -7 3 -2 5 12 5 14 0 19 -2 13 -5z m-68 -12 c-54 -14 -112 -50 -150 -93
-21 -24 -33 -34 -27 -23 27 53 133 125 182 124 23 -1 22 -2 -5 -8z m114 -100
c8 -5 -4 -7 -32 -4 -25 3 -59 1 -76 -5 -36 -13 -42 -6 -8 8 29 11 98 12 116 1z
m81 -62 c12 -16 19 -33 16 -36 -3 -4 -6 -1 -6 5 0 6 -16 28 -36 48 -21 20 -28
31 -16 25 11 -6 30 -25 42 -42z m-230 38 c0 -2 -12 -14 -27 -28 l-28 -24 24
28 c23 25 31 32 31 24z m-57 -72 c-3 -9 -8 -14 -10 -11 -3 3 -2 9 2 15 9 16
15 13 8 -4z m3409 -316 c223 -47 386 -270 364 -500 -9 -101 -42 -182 -111
-275 -6 -9 6 -28 43 -68 29 -30 52 -57 52 -60 0 -2 -25 -26 -56 -52 l-56 -48
-52 58 -51 58 -77 -26 c-170 -57 -341 -20 -465 102 -181 178 -186 493 -11 678
65 68 123 104 208 126 77 20 140 22 212 7z m670 -332 l3 -334 29 -37 c71 -93
229 -103 308 -19 15 15 32 41 37 56 7 18 11 146 11 348 l0 319 85 0 85 0 0
-318 c0 -343 -6 -394 -54 -471 -64 -101 -169 -153 -311 -153 -171 -1 -290 73
-343 214 -14 36 -17 98 -20 386 l-3 342 85 0 85 0 3 -333z m1320 -122 c92
-247 167 -453 167 -457 1 -5 -41 -8 -92 -8 l-93 0 -28 85 -27 85 -188 0 -187
0 -29 -85 -28 -85 -95 0 c-83 0 -93 2 -88 16 4 9 76 204 160 433 85 229 159
429 165 444 l11 28 92 -3 93 -3 167 -450z m653 136 l210 -314 3 317 2 317 80
-3 80 -3 3 -458 2 -457 -85 0 -85 0 -200 299 -200 298 -3 -299 -2 -298 -85 0
-85 0 0 460 0 461 78 -3 77 -3 210 -314z m1218 236 l2 -77 -132 0 -133 0 0
-380 0 -380 -82 0 -83 0 0 377 0 378 -132 3 -133 3 0 79 0 80 346 -2 346 -3 1
-78z m-6513 -42 c13 -14 21 -25 18 -25 -2 0 -15 11 -28 25 -13 14 -21 25 -18
25 2 0 15 -11 28 -25z m173 -12 c-13 -2 -33 -2 -45 0 -13 2 -3 4 22 4 25 0 35
-2 23 -4z m224 -205 c-3 -8 -6 -5 -6 6 -1 11 2 17 5 13 3 -3 4 -12 1 -19z m0
-110 c-3 -7 -5 -2 -5 12 0 14 2 19 5 13 2 -7 2 -19 0 -25z m853 -284 c0 -2 -9
-8 -20 -14 -15 -8 -18 -8 -14 3 4 11 34 21 34 11z m-505 -190 c-26 -20 -55
-36 -55 -30 0 5 63 46 70 46 3 -1 -4 -8 -15 -16z m-65 -39 c0 -2 -10 -9 -22
-15 -22 -11 -22 -10 -4 4 21 17 26 19 26 11z m155 -51 c-24 -18 -83 -50 -73
-39 10 10 81 54 88 54 3 0 -4 -7 -15 -15z"/>
<path d="M1535 6210 c-3 -6 1 -7 9 -4 18 7 21 14 7 14 -6 0 -13 -4 -16 -10z"/>
<path d="M3690 4430 c-12 -7 -10 -9 8 -7 12 0 22 5 22 9 0 11 -12 10 -30 -2z"/>
<path d="M7240 6010 l0 -110 108 0 c88 0 113 3 139 20 39 23 56 74 42 126 -17
58 -54 74 -181 74 l-108 0 0 -110z"/>
<path d="M7240 5664 l0 -127 113 5 c124 6 161 18 183 59 19 37 18 109 -2 137
-29 42 -65 52 -184 52 l-110 0 0 -126z"/>
<path d="M2555 6116 c-98 -45 -118 -156 -39 -225 66 -58 165 -36 205 46 22 46
20 88 -8 130 -33 50 -106 73 -158 49z"/>
<path d="M2309 5793 c-13 -16 -12 -17 4 -4 9 7 17 15 17 17 0 8 -8 3 -21 -13z"/>
<path d="M3325 5411 c-61 -25 -103 -108 -90 -177 9 -52 77 -120 129 -129 108
-21 212 82 192 189 -8 41 -46 90 -87 111 -30 16 -111 19 -144 6z"/>
<path d="M5053 4960 c-130 -26 -221 -140 -231 -285 -12 -186 107 -325 278
-325 67 0 110 8 110 19 0 3 -25 34 -56 69 -31 35 -53 67 -48 71 45 38 103 81
110 80 5 0 32 -27 59 -59 28 -33 54 -59 58 -60 4 0 20 26 35 58 35 75 37 192
6 263 -57 124 -190 195 -321 169z"/>
<path d="M6862 4717 c-34 -100 -62 -185 -62 -189 0 -5 59 -8 130 -8 72 0 130
3 130 7 0 11 -122 357 -129 365 -3 4 -34 -75 -69 -175z"/>
</g>
</svg>
